# xmcd
#
# Track frame offsets: 
#        150
#        10646
#        22584
#        37855
#        53370
#        65827
#        82201
#        94921
#        101272
#        119555
#        146320
#        154249
#        165793
#        179128
#        197638
#        210682
#
# Disc length: 2981 seconds
#
# Revision: 0
# Processed by: cddbd v1.5.2PL0 Copyright (c) Steve Scherf et al.
# Submitted via: ExactAudioCopy v0.99pb4
#
DISCID=c70ba310
DTITLE=Black Smokers - Used
DYEAR=2009
DGENRE=Blues
TTITLE0=Hey Mama
TTITLE1=Kickboxer Girl
TTITLE2=Rain on the Ocean
TTITLE3=Wanna Wait
TTITLE4=Bullet Proof
TTITLE5=Used
TTITLE6=What the Hell
TTITLE7=Racoon Cith Limits
TTITLE8=Cheap Women
TTITLE9=Foggy Days
TTITLE10=Notturno OP. 69
TTITLE11=Toc Toc
TTITLE12=Gone
TTITLE13=Little Nasty Girl
TTITLE14=Folsom Prisom Blues
TTITLE15=Bullet Proof
EXTD=
EXTT0=
EXTT1=
EXTT2=
EXTT3=
EXTT4=
EXTT5=
EXTT6=
EXTT7=
EXTT8=
EXTT9=
EXTT10=
EXTT11=
EXTT12=
EXTT13=
EXTT14=
EXTT15=
PLAYORDER=
